# xmcd
# Track frame offsets:
# 150
# 10893
# 24483
# 34457
# 46224
# 58033
# 68736
# 79358
# 88619
# 97616
# 109288
# 120649
# 130727
# 140372
# 153154
# 165053
# 173689
# 183533
# 194471
# 206160
#
# Disc length: 2908 seconds
# Revision: 0
# Processed by: cddbd v1.5.2PL0 Copyright (c) Steve Scherf et al.
# Submitted via: VisiTrax 2.11.3.279 - For more info visit www.synapsa.com
#
DISCID=050b5a14
DTITLE=Various (1930s-1950s) Rock n Roll and Blues and Jazz Artists - Roots Of Ro
DTITLE=ck and Roll: Rough And Rowdy: CD3 of 10: *ReMastered Tracks
DYEAR=2014
DGENRE=Rock n Roll
TTITLE0=Big Joe Turner - Bump Miss Susie*
TTITLE1=Arthur "Big Boy" Crudup - I Want My Lovin'*
TTITLE2=Chuck Higgins - Motorhead Baby*
TTITLE3=Esther and Mel Walker - Johnny Otis Orchestra - Cupid's Boogie*
TTITLE4=Ruth Brown - Hello Little Boy*
TTITLE5=Chuck Willis - Caladonia*
TTITLE6=Clarence "Frogman" Henry - Ain't Got No Home*
TTITLE7=Big Mama Thornton - They Call Me Big Mama*
TTITLE8=Paul Gayten - Music Goes Round And Round*
TTITLE9=Bobby Day - Beep, Beep, Beep*
TTITLE10=Young Jessie - Hit, Git And Split*
TTITLE11=Etta James - That's All*
TTITLE12=Roy Milton - You Got Me Reelin' And Rockin'*
TTITLE13=Hamptons The - Lionel Hampton Orchestra - Rag Mop*
TTITLE14=Piney Brown - That's Right Little Girl*
TTITLE15=Don Covay - Big Bop Bip*
TTITLE16=Dolly Cooper - My Man*
TTITLE17=Joe Houston - Rock That Boogie*
TTITLE18=Clarence Garlow - Crawfishin'*
TTITLE19=Hank Ballard and The Midnighters - Annie Had A Baby*
EXTD=Compilation and Remastering: Document-The Intense Media: 2014
EXTT0=
EXTT1=
EXTT2=
EXTT3=
EXTT4=
EXTT5=
EXTT6=
EXTT7=
EXTT8=
EXTT9=
EXTT10=
EXTT11=
EXTT12=
EXTT13=
EXTT14=
EXTT15=
EXTT16=
EXTT17=
EXTT18=
EXTT19=
PLAYORDER=
